# xmcd
#
# Track frame offsets: 
#        150
#        14189
#        28851
#        42644
#        58164
#        71109
#        84110
#        97756
#        112964
#        127114
#        141991
#        156538
#
# Disc length: 2271 seconds
#
# Revision: 2
# Processed by: cddbd v1.5.2PL0 Copyright (c) Steve Scherf et al.
# Submitted via: ExactAudioCopyFreeDBPlugin 1.0
#
DISCID=b008dd0c
DTITLE=Aste - Surullisiilauluja
DYEAR=2009
DGENRE=Rap
TTITLE0=Eteenp‰in
TTITLE1=Unelmien Poikayst‰v‰
TTITLE2=Poikkeus S‰‰ntˆˆn
TTITLE3=P‰‰st‰ Mut Pois
TTITLE4=Miten K‰vik‰‰n
TTITLE5=Surullisiilauluja
TTITLE6=70-80-90 (feat. Br‰di and Henrytsaari)
TTITLE7=Meid‰n Syy
TTITLE8=Rakkauslaulu
TTITLE9=Takaisin
TTITLE10=Loppu
TTITLE11=ADHD -09
EXTD=
EXTT0=
EXTT1=
EXTT2=
EXTT3=
EXTT4=
EXTT5=
EXTT6=
EXTT7=
EXTT8=
EXTT9=
EXTT10=
EXTT11=
PLAYORDER=
